<?xml version="1.0" encoding="UTF-8" standalone="no"?>
<!DOCTYPE svg PUBLIC "-//W3C//DTD SVG 1.1//EN"
 "http://www.w3.org/Graphics/SVG/1.1/DTD/svg11.dtd">
<!-- Generated by graphviz version 5.0.0 (20220707.1540)
 -->
<!-- Title: dependencies Pages: 1 -->
<svg width="3053pt" height="247pt"
 viewBox="0.00 0.00 3053.00 246.80" xmlns="http://www.w3.org/2000/svg" xmlns:xlink="http://www.w3.org/1999/xlink">
<g id="graph0" class="graph" transform="scale(1 1) rotate(0) translate(4 242.8)">
<title>dependencies</title>
<polygon fill="white" stroke="transparent" points="-4,4 -4,-242.8 3049,-242.8 3049,4 -4,4"/>
<text text-anchor="middle" x="1522.5" y="-8.2" font-family="sans-serif" font-size="14.00">dependencies</text>
<g id="clust1" class="cluster">
<title>cluster_AppModule</title>
<polygon fill="none" stroke="black" stroke-dasharray="1,5" points="8,-32.8 8,-230.8 3037,-230.8 3037,-32.8 8,-32.8"/>
</g>
<g id="clust18" class="cluster">
<title>cluster_AppModule_imports</title>
<polygon fill="none" stroke="black" points="2885,-40.8 2885,-92.8 3029,-92.8 3029,-40.8 2885,-40.8"/>
</g>
<g id="clust20" class="cluster">
<title>cluster_AppModule_bootstrap</title>
<polygon fill="none" stroke="black" points="1387,-170.8 1387,-222.8 1511,-222.8 1511,-170.8 1387,-170.8"/>
</g>
<g id="clust2" class="cluster">
<title>cluster_AppModule_declarations</title>
<polygon fill="none" stroke="black" points="16,-40.8 16,-92.8 2877,-92.8 2877,-40.8 16,-40.8"/>
</g>
<!-- AppComponent -->
<g id="node1" class="node">
<title>AppComponent</title>
<polygon fill="#ffffb3" stroke="black" points="2868.94,-84.8 2763.06,-84.8 2763.06,-48.8 2868.94,-48.8 2868.94,-84.8"/>
<text text-anchor="middle" x="2816" y="-62.6" font-family="Times,serif" font-size="14.00">AppComponent</text>
</g>
<!-- AppModule -->
<g id="node16" class="node">
<title>AppModule</title>
<polygon fill="#8dd3c7" stroke="black" points="1490.66,-149.8 1487.66,-153.8 1466.66,-153.8 1463.66,-149.8 1407.34,-149.8 1407.34,-113.8 1490.66,-113.8 1490.66,-149.8"/>
<text text-anchor="middle" x="1449" y="-127.6" font-family="Times,serif" font-size="14.00">AppModule</text>
</g>
<!-- AppComponent&#45;&gt;AppModule -->
<g id="edge1" class="edge">
<title>AppComponent&#45;&gt;AppModule</title>
<path fill="none" stroke="black" d="M2816,-85.09C2816,-107.01 2816,-140.8 2816,-140.8 2816,-140.8 1501.03,-140.8 1501.03,-140.8"/>
<polygon fill="black" stroke="black" points="1501.03,-137.3 1491.03,-140.8 1501.03,-144.3 1501.03,-137.3"/>
</g>
<!-- AuthenticateComponent -->
<g id="node2" class="node">
<title>AuthenticateComponent</title>
<polygon fill="#ffffb3" stroke="black" points="2745.36,-84.8 2592.64,-84.8 2592.64,-48.8 2745.36,-48.8 2745.36,-84.8"/>
<text text-anchor="middle" x="2669" y="-62.6" font-family="Times,serif" font-size="14.00">AuthenticateComponent</text>
</g>
<!-- AuthenticateComponent&#45;&gt;AppModule -->
<g id="edge2" class="edge">
<title>AuthenticateComponent&#45;&gt;AppModule</title>
<path fill="none" stroke="black" d="M2669,-84.83C2669,-105.57 2669,-136.8 2669,-136.8 2669,-136.8 1501,-136.8 1501,-136.8"/>
<polygon fill="black" stroke="black" points="1501,-133.3 1491,-136.8 1501,-140.3 1501,-133.3"/>
</g>
<!-- CustomerAddVehicleComponent -->
<g id="node3" class="node">
<title>CustomerAddVehicleComponent</title>
<polygon fill="#ffffb3" stroke="black" points="2574.91,-84.8 2371.09,-84.8 2371.09,-48.8 2574.91,-48.8 2574.91,-84.8"/>
<text text-anchor="middle" x="2473" y="-62.6" font-family="Times,serif" font-size="14.00">CustomerAddVehicleComponent</text>
</g>
<!-- CustomerAddVehicleComponent&#45;&gt;AppModule -->
<g id="edge3" class="edge">
<title>CustomerAddVehicleComponent&#45;&gt;AppModule</title>
<path fill="none" stroke="black" d="M2473,-84.91C2473,-104.14 2473,-131.8 2473,-131.8 2473,-131.8 1500.73,-131.8 1500.73,-131.8"/>
<polygon fill="black" stroke="black" points="1500.73,-128.3 1490.73,-131.8 1500.73,-135.3 1500.73,-128.3"/>
</g>
<!-- CustomerComponent -->
<g id="node4" class="node">
<title>CustomerComponent</title>
<polygon fill="#ffffb3" stroke="black" points="2352.77,-84.8 2217.23,-84.8 2217.23,-48.8 2352.77,-48.8 2352.77,-84.8"/>
<text text-anchor="middle" x="2285" y="-62.6" font-family="Times,serif" font-size="14.00">CustomerComponent</text>
</g>
<!-- CustomerComponent&#45;&gt;AppModule -->
<g id="edge4" class="edge">
<title>CustomerComponent&#45;&gt;AppModule</title>
<path fill="none" stroke="black" d="M2285,-85.1C2285,-103.07 2285,-127.8 2285,-127.8 2285,-127.8 1500.74,-127.8 1500.74,-127.8"/>
<polygon fill="black" stroke="black" points="1500.74,-124.3 1490.74,-127.8 1500.74,-131.3 1500.74,-124.3"/>
</g>
<!-- CustomerManageAppointmentsComponent -->
<g id="node5" class="node">
<title>CustomerManageAppointmentsComponent</title>
<polygon fill="#ffffb3" stroke="black" points="2199.19,-84.8 1938.81,-84.8 1938.81,-48.8 2199.19,-48.8 2199.19,-84.8"/>
<text text-anchor="middle" x="2069" y="-62.6" font-family="Times,serif" font-size="14.00">CustomerManageAppointmentsComponent</text>
</g>
<!-- CustomerManageAppointmentsComponent&#45;&gt;AppModule -->
<g id="edge5" class="edge">
<title>CustomerManageAppointmentsComponent&#45;&gt;AppModule</title>
<path fill="none" stroke="black" d="M2069,-84.83C2069,-101.2 2069,-122.8 2069,-122.8 2069,-122.8 1501.13,-122.8 1501.13,-122.8"/>
<polygon fill="black" stroke="black" points="1501.13,-119.3 1491.13,-122.8 1501.13,-126.3 1501.13,-119.3"/>
</g>
<!-- CustomerScheduleAppointmentComponent -->
<g id="node6" class="node">
<title>CustomerScheduleAppointmentComponent</title>
<polygon fill="#ffffb3" stroke="black" points="1920.47,-84.8 1659.53,-84.8 1659.53,-48.8 1920.47,-48.8 1920.47,-84.8"/>
<text text-anchor="middle" x="1790" y="-62.6" font-family="Times,serif" font-size="14.00">CustomerScheduleAppointmentComponent</text>
</g>
<!-- CustomerScheduleAppointmentComponent&#45;&gt;AppModule -->
<g id="edge6" class="edge">
<title>CustomerScheduleAppointmentComponent&#45;&gt;AppModule</title>
<path fill="none" stroke="black" d="M1790,-84.99C1790,-99.98 1790,-118.8 1790,-118.8 1790,-118.8 1500.81,-118.8 1500.81,-118.8"/>
<polygon fill="black" stroke="black" points="1500.81,-115.3 1490.81,-118.8 1500.81,-122.3 1500.81,-115.3"/>
</g>
<!-- CustomerServicesComponent -->
<g id="node7" class="node">
<title>CustomerServicesComponent</title>
<polygon fill="#ffffb3" stroke="black" points="1641.7,-84.8 1458.3,-84.8 1458.3,-48.8 1641.7,-48.8 1641.7,-84.8"/>
<text text-anchor="middle" x="1550" y="-62.6" font-family="Times,serif" font-size="14.00">CustomerServicesComponent</text>
</g>
<!-- CustomerServicesComponent&#45;&gt;AppModule -->
<g id="edge7" class="edge">
<title>CustomerServicesComponent&#45;&gt;AppModule</title>
<path fill="none" stroke="black" d="M1474.62,-84.91C1474.62,-84.91 1474.62,-103.79 1474.62,-103.79"/>
<polygon fill="black" stroke="black" points="1471.12,-103.79 1474.62,-113.79 1478.12,-103.79 1471.12,-103.79"/>
</g>
<!-- CustomerVehiclesComponent -->
<g id="node8" class="node">
<title>CustomerVehiclesComponent</title>
<polygon fill="#ffffb3" stroke="black" points="1440.25,-84.8 1255.75,-84.8 1255.75,-48.8 1440.25,-48.8 1440.25,-84.8"/>
<text text-anchor="middle" x="1348" y="-62.6" font-family="Times,serif" font-size="14.00">CustomerVehiclesComponent</text>
</g>
<!-- CustomerVehiclesComponent&#45;&gt;AppModule -->
<g id="edge8" class="edge">
<title>CustomerVehiclesComponent&#45;&gt;AppModule</title>
<path fill="none" stroke="black" d="M1423.77,-84.91C1423.77,-84.91 1423.77,-103.79 1423.77,-103.79"/>
<polygon fill="black" stroke="black" points="1420.27,-103.79 1423.77,-113.79 1427.27,-103.79 1420.27,-103.79"/>
</g>
<!-- HeaderComponent -->
<g id="node9" class="node">
<title>HeaderComponent</title>
<polygon fill="#ffffb3" stroke="black" points="1237.75,-84.8 1116.25,-84.8 1116.25,-48.8 1237.75,-48.8 1237.75,-84.8"/>
<text text-anchor="middle" x="1177" y="-62.6" font-family="Times,serif" font-size="14.00">HeaderComponent</text>
</g>
<!-- HeaderComponent&#45;&gt;AppModule -->
<g id="edge9" class="edge">
<title>HeaderComponent&#45;&gt;AppModule</title>
<path fill="none" stroke="black" d="M1177,-84.99C1177,-99.98 1177,-118.8 1177,-118.8 1177,-118.8 1397.1,-118.8 1397.1,-118.8"/>
<polygon fill="black" stroke="black" points="1397.1,-122.3 1407.1,-118.8 1397.1,-115.3 1397.1,-122.3"/>
</g>
<!-- PasswordComponent -->
<g id="node10" class="node">
<title>PasswordComponent</title>
<polygon fill="#ffffb3" stroke="black" points="1098.5,-84.8 963.5,-84.8 963.5,-48.8 1098.5,-48.8 1098.5,-84.8"/>
<text text-anchor="middle" x="1031" y="-62.6" font-family="Times,serif" font-size="14.00">PasswordComponent</text>
</g>
<!-- PasswordComponent&#45;&gt;AppModule -->
<g id="edge10" class="edge">
<title>PasswordComponent&#45;&gt;AppModule</title>
<path fill="none" stroke="black" d="M1031,-84.83C1031,-101.2 1031,-122.8 1031,-122.8 1031,-122.8 1397.01,-122.8 1397.01,-122.8"/>
<polygon fill="black" stroke="black" points="1397.01,-126.3 1407.01,-122.8 1397.01,-119.3 1397.01,-126.3"/>
</g>
<!-- ProfileComponent -->
<g id="node11" class="node">
<title>ProfileComponent</title>
<polygon fill="#ffffb3" stroke="black" points="945.94,-84.8 826.06,-84.8 826.06,-48.8 945.94,-48.8 945.94,-84.8"/>
<text text-anchor="middle" x="886" y="-62.6" font-family="Times,serif" font-size="14.00">ProfileComponent</text>
</g>
<!-- ProfileComponent&#45;&gt;AppModule -->
<g id="edge11" class="edge">
<title>ProfileComponent&#45;&gt;AppModule</title>
<path fill="none" stroke="black" d="M886,-85.1C886,-103.07 886,-127.8 886,-127.8 886,-127.8 1397.14,-127.8 1397.14,-127.8"/>
<polygon fill="black" stroke="black" points="1397.14,-131.3 1407.14,-127.8 1397.14,-124.3 1397.14,-131.3"/>
</g>
<!-- ShopComponent -->
<g id="node12" class="node">
<title>ShopComponent</title>
<polygon fill="#ffffb3" stroke="black" points="808.12,-84.8 697.88,-84.8 697.88,-48.8 808.12,-48.8 808.12,-84.8"/>
<text text-anchor="middle" x="753" y="-62.6" font-family="Times,serif" font-size="14.00">ShopComponent</text>
</g>
<!-- ShopComponent&#45;&gt;AppModule -->
<g id="edge12" class="edge">
<title>ShopComponent&#45;&gt;AppModule</title>
<path fill="none" stroke="black" d="M753,-84.91C753,-104.14 753,-131.8 753,-131.8 753,-131.8 1397.29,-131.8 1397.29,-131.8"/>
<polygon fill="black" stroke="black" points="1397.29,-135.3 1407.29,-131.8 1397.29,-128.3 1397.29,-135.3"/>
</g>
<!-- ShopManageAppointmentsComponent -->
<g id="node13" class="node">
<title>ShopManageAppointmentsComponent</title>
<polygon fill="#ffffb3" stroke="black" points="680.04,-84.8 445.96,-84.8 445.96,-48.8 680.04,-48.8 680.04,-84.8"/>
<text text-anchor="middle" x="563" y="-62.6" font-family="Times,serif" font-size="14.00">ShopManageAppointmentsComponent</text>
</g>
<!-- ShopManageAppointmentsComponent&#45;&gt;AppModule -->
<g id="edge13" class="edge">
<title>ShopManageAppointmentsComponent&#45;&gt;AppModule</title>
<path fill="none" stroke="black" d="M563,-84.83C563,-105.57 563,-136.8 563,-136.8 563,-136.8 1397.16,-136.8 1397.16,-136.8"/>
<polygon fill="black" stroke="black" points="1397.16,-140.3 1407.16,-136.8 1397.16,-133.3 1397.16,-140.3"/>
</g>
<!-- ShopManagePartsComponent -->
<g id="node14" class="node">
<title>ShopManagePartsComponent</title>
<polygon fill="#ffffb3" stroke="black" points="427.71,-84.8 244.29,-84.8 244.29,-48.8 427.71,-48.8 427.71,-84.8"/>
<text text-anchor="middle" x="336" y="-62.6" font-family="Times,serif" font-size="14.00">ShopManagePartsComponent</text>
</g>
<!-- ShopManagePartsComponent&#45;&gt;AppModule -->
<g id="edge14" class="edge">
<title>ShopManagePartsComponent&#45;&gt;AppModule</title>
<path fill="none" stroke="black" d="M336,-85.09C336,-107.01 336,-140.8 336,-140.8 336,-140.8 1397.06,-140.8 1397.06,-140.8"/>
<polygon fill="black" stroke="black" points="1397.06,-144.3 1407.06,-140.8 1397.06,-137.3 1397.06,-144.3"/>
</g>
<!-- ShopManageServicesComponent -->
<g id="node15" class="node">
<title>ShopManageServicesComponent</title>
<polygon fill="#ffffb3" stroke="black" points="226.14,-84.8 23.86,-84.8 23.86,-48.8 226.14,-48.8 226.14,-84.8"/>
<text text-anchor="middle" x="125" y="-62.6" font-family="Times,serif" font-size="14.00">ShopManageServicesComponent</text>
</g>
<!-- ShopManageServicesComponent&#45;&gt;AppModule -->
<g id="edge15" class="edge">
<title>ShopManageServicesComponent&#45;&gt;AppModule</title>
<path fill="none" stroke="black" d="M125,-85.12C125,-108.46 125,-145.8 125,-145.8 125,-145.8 1397.19,-145.8 1397.19,-145.8"/>
<polygon fill="black" stroke="black" points="1397.19,-149.3 1407.19,-145.8 1397.19,-142.3 1397.19,-149.3"/>
</g>
<!-- AppComponent  -->
<g id="node18" class="node">
<title>AppComponent </title>
<polygon fill="#80b1d3" stroke="black" points="1503.44,-214.8 1394.56,-214.8 1394.56,-178.8 1503.44,-178.8 1503.44,-214.8"/>
<text text-anchor="middle" x="1449" y="-192.6" font-family="Times,serif" font-size="14.00">AppComponent </text>
</g>
<!-- AppModule&#45;&gt;AppComponent  -->
<g id="edge17" class="edge">
<title>AppModule&#45;&gt;AppComponent </title>
<path fill="none" stroke="black" stroke-dasharray="1,5" d="M1449,-149.91C1449,-149.91 1449,-168.79 1449,-168.79"/>
<polygon fill="black" stroke="black" points="1445.5,-168.79 1449,-178.79 1452.5,-168.79 1445.5,-168.79"/>
</g>
<!-- AppRoutingModule -->
<g id="node17" class="node">
<title>AppRoutingModule</title>
<polygon fill="#8dd3c7" stroke="black" points="3021.28,-84.8 3018.28,-88.8 2997.28,-88.8 2994.28,-84.8 2892.72,-84.8 2892.72,-48.8 3021.28,-48.8 3021.28,-84.8"/>
<text text-anchor="middle" x="2957" y="-62.6" font-family="Times,serif" font-size="14.00">AppRoutingModule</text>
</g>
<!-- AppRoutingModule&#45;&gt;AppModule -->
<g id="edge16" class="edge">
<title>AppRoutingModule&#45;&gt;AppModule</title>
<path fill="none" stroke="black" d="M2957,-85.12C2957,-108.46 2957,-145.8 2957,-145.8 2957,-145.8 1500.91,-145.8 1500.91,-145.8"/>
<polygon fill="black" stroke="black" points="1500.91,-142.3 1490.91,-145.8 1500.91,-149.3 1500.91,-142.3"/>
</g>
</g>
</svg>
