<?xml version="1.0" encoding="UTF-8" standalone="no"?>
<!DOCTYPE svg PUBLIC "-//W3C//DTD SVG 1.1//EN"
 "http://www.w3.org/Graphics/SVG/1.1/DTD/svg11.dtd">
<!-- Generated by graphviz version 5.0.0 (20220707.1540)
 -->
<!-- Title: dependencies Pages: 1 -->
<svg width="3053pt" height="247pt"
 viewBox="0.00 0.00 3053.00 246.80" xmlns="http://www.w3.org/2000/svg" xmlns:xlink="http://www.w3.org/1999/xlink">
<g id="graph0" class="graph" transform="scale(1 1) rotate(0) translate(4 242.8)">
<title>dependencies</title>
<polygon fill="white" stroke="transparent" points="-4,4 -4,-242.8 3049,-242.8 3049,4 -4,4"/>
<text text-anchor="middle" x="1522.5" y="-8.2" font-family="sans-serif" font-size="14.00">dependencies</text>
<g id="clust1" class="cluster">
<title>cluster_AppModule</title>
<polygon fill="none" stroke="black" stroke-dasharray="1,5" points="8,-32.8 8,-230.8 3037,-230.8 3037,-32.8 8,-32.8"/>
</g>
<g id="clust2" class="cluster">
<title>cluster_AppModule_declarations</title>
<polygon fill="none" stroke="black" points="168,-40.8 168,-92.8 3029,-92.8 3029,-40.8 168,-40.8"/>
</g>
<g id="clust18" class="cluster">
<title>cluster_AppModule_imports</title>
<polygon fill="none" stroke="black" points="16,-40.8 16,-92.8 160,-92.8 160,-40.8 16,-40.8"/>
</g>
<g id="clust20" class="cluster">
<title>cluster_AppModule_bootstrap</title>
<polygon fill="none" stroke="black" points="1352,-170.8 1352,-222.8 1476,-222.8 1476,-170.8 1352,-170.8"/>
</g>
<!-- AppComponent -->
<g id="node1" class="node">
<title>AppComponent</title>
<polygon fill="#ffffb3" stroke="black" points="3020.94,-84.8 2915.06,-84.8 2915.06,-48.8 3020.94,-48.8 3020.94,-84.8"/>
<text text-anchor="middle" x="2968" y="-62.6" font-family="Times,serif" font-size="14.00">AppComponent</text>
</g>
<!-- AppModule -->
<g id="node16" class="node">
<title>AppModule</title>
<polygon fill="#8dd3c7" stroke="black" points="1455.66,-149.8 1452.66,-153.8 1431.66,-153.8 1428.66,-149.8 1372.34,-149.8 1372.34,-113.8 1455.66,-113.8 1455.66,-149.8"/>
<text text-anchor="middle" x="1414" y="-127.6" font-family="Times,serif" font-size="14.00">AppModule</text>
</g>
<!-- AppComponent&#45;&gt;AppModule -->
<g id="edge1" class="edge">
<title>AppComponent&#45;&gt;AppModule</title>
<path fill="none" stroke="black" d="M2968,-85.12C2968,-108.46 2968,-145.8 2968,-145.8 2968,-145.8 1465.97,-145.8 1465.97,-145.8"/>
<polygon fill="black" stroke="black" points="1465.97,-142.3 1455.97,-145.8 1465.97,-149.3 1465.97,-142.3"/>
</g>
<!-- AuthenticateComponent -->
<g id="node2" class="node">
<title>AuthenticateComponent</title>
<polygon fill="#ffffb3" stroke="black" points="2897.36,-84.8 2744.64,-84.8 2744.64,-48.8 2897.36,-48.8 2897.36,-84.8"/>
<text text-anchor="middle" x="2821" y="-62.6" font-family="Times,serif" font-size="14.00">AuthenticateComponent</text>
</g>
<!-- AuthenticateComponent&#45;&gt;AppModule -->
<g id="edge2" class="edge">
<title>AuthenticateComponent&#45;&gt;AppModule</title>
<path fill="none" stroke="black" d="M2821,-85.09C2821,-107.01 2821,-140.8 2821,-140.8 2821,-140.8 1465.73,-140.8 1465.73,-140.8"/>
<polygon fill="black" stroke="black" points="1465.73,-137.3 1455.73,-140.8 1465.73,-144.3 1465.73,-137.3"/>
</g>
<!-- CustomerAddVehicleComponent -->
<g id="node3" class="node">
<title>CustomerAddVehicleComponent</title>
<polygon fill="#ffffb3" stroke="black" points="2726.91,-84.8 2523.09,-84.8 2523.09,-48.8 2726.91,-48.8 2726.91,-84.8"/>
<text text-anchor="middle" x="2625" y="-62.6" font-family="Times,serif" font-size="14.00">CustomerAddVehicleComponent</text>
</g>
<!-- CustomerAddVehicleComponent&#45;&gt;AppModule -->
<g id="edge3" class="edge">
<title>CustomerAddVehicleComponent&#45;&gt;AppModule</title>
<path fill="none" stroke="black" d="M2625,-84.83C2625,-105.57 2625,-136.8 2625,-136.8 2625,-136.8 1465.69,-136.8 1465.69,-136.8"/>
<polygon fill="black" stroke="black" points="1465.69,-133.3 1455.69,-136.8 1465.69,-140.3 1465.69,-133.3"/>
</g>
<!-- CustomerComponent -->
<g id="node4" class="node">
<title>CustomerComponent</title>
<polygon fill="#ffffb3" stroke="black" points="2504.77,-84.8 2369.23,-84.8 2369.23,-48.8 2504.77,-48.8 2504.77,-84.8"/>
<text text-anchor="middle" x="2437" y="-62.6" font-family="Times,serif" font-size="14.00">CustomerComponent</text>
</g>
<!-- CustomerComponent&#45;&gt;AppModule -->
<g id="edge4" class="edge">
<title>CustomerComponent&#45;&gt;AppModule</title>
<path fill="none" stroke="black" d="M2437,-84.91C2437,-104.14 2437,-131.8 2437,-131.8 2437,-131.8 1465.69,-131.8 1465.69,-131.8"/>
<polygon fill="black" stroke="black" points="1465.69,-128.3 1455.69,-131.8 1465.69,-135.3 1465.69,-128.3"/>
</g>
<!-- CustomerManageAppointmentsComponent -->
<g id="node5" class="node">
<title>CustomerManageAppointmentsComponent</title>
<polygon fill="#ffffb3" stroke="black" points="2351.19,-84.8 2090.81,-84.8 2090.81,-48.8 2351.19,-48.8 2351.19,-84.8"/>
<text text-anchor="middle" x="2221" y="-62.6" font-family="Times,serif" font-size="14.00">CustomerManageAppointmentsComponent</text>
</g>
<!-- CustomerManageAppointmentsComponent&#45;&gt;AppModule -->
<g id="edge5" class="edge">
<title>CustomerManageAppointmentsComponent&#45;&gt;AppModule</title>
<path fill="none" stroke="black" d="M2221,-85.1C2221,-103.07 2221,-127.8 2221,-127.8 2221,-127.8 1465.69,-127.8 1465.69,-127.8"/>
<polygon fill="black" stroke="black" points="1465.69,-124.3 1455.69,-127.8 1465.69,-131.3 1465.69,-124.3"/>
</g>
<!-- CustomerScheduleAppointmentComponent -->
<g id="node6" class="node">
<title>CustomerScheduleAppointmentComponent</title>
<polygon fill="#ffffb3" stroke="black" points="2072.47,-84.8 1811.53,-84.8 1811.53,-48.8 2072.47,-48.8 2072.47,-84.8"/>
<text text-anchor="middle" x="1942" y="-62.6" font-family="Times,serif" font-size="14.00">CustomerScheduleAppointmentComponent</text>
</g>
<!-- CustomerScheduleAppointmentComponent&#45;&gt;AppModule -->
<g id="edge6" class="edge">
<title>CustomerScheduleAppointmentComponent&#45;&gt;AppModule</title>
<path fill="none" stroke="black" d="M1942,-84.83C1942,-101.2 1942,-122.8 1942,-122.8 1942,-122.8 1465.87,-122.8 1465.87,-122.8"/>
<polygon fill="black" stroke="black" points="1465.87,-119.3 1455.87,-122.8 1465.87,-126.3 1465.87,-119.3"/>
</g>
<!-- CustomerServicesComponent -->
<g id="node7" class="node">
<title>CustomerServicesComponent</title>
<polygon fill="#ffffb3" stroke="black" points="1793.7,-84.8 1610.3,-84.8 1610.3,-48.8 1793.7,-48.8 1793.7,-84.8"/>
<text text-anchor="middle" x="1702" y="-62.6" font-family="Times,serif" font-size="14.00">CustomerServicesComponent</text>
</g>
<!-- CustomerServicesComponent&#45;&gt;AppModule -->
<g id="edge7" class="edge">
<title>CustomerServicesComponent&#45;&gt;AppModule</title>
<path fill="none" stroke="black" d="M1702,-84.99C1702,-99.98 1702,-118.8 1702,-118.8 1702,-118.8 1465.88,-118.8 1465.88,-118.8"/>
<polygon fill="black" stroke="black" points="1465.88,-115.3 1455.88,-118.8 1465.88,-122.3 1465.88,-115.3"/>
</g>
<!-- CustomerVehiclesComponent -->
<g id="node8" class="node">
<title>CustomerVehiclesComponent</title>
<polygon fill="#ffffb3" stroke="black" points="1592.25,-84.8 1407.75,-84.8 1407.75,-48.8 1592.25,-48.8 1592.25,-84.8"/>
<text text-anchor="middle" x="1500" y="-62.6" font-family="Times,serif" font-size="14.00">CustomerVehiclesComponent</text>
</g>
<!-- CustomerVehiclesComponent&#45;&gt;AppModule -->
<g id="edge8" class="edge">
<title>CustomerVehiclesComponent&#45;&gt;AppModule</title>
<path fill="none" stroke="black" d="M1431.73,-84.91C1431.73,-84.91 1431.73,-103.79 1431.73,-103.79"/>
<polygon fill="black" stroke="black" points="1428.23,-103.79 1431.73,-113.79 1435.23,-103.79 1428.23,-103.79"/>
</g>
<!-- HeaderComponent -->
<g id="node9" class="node">
<title>HeaderComponent</title>
<polygon fill="#ffffb3" stroke="black" points="1389.75,-84.8 1268.25,-84.8 1268.25,-48.8 1389.75,-48.8 1389.75,-84.8"/>
<text text-anchor="middle" x="1329" y="-62.6" font-family="Times,serif" font-size="14.00">HeaderComponent</text>
</g>
<!-- HeaderComponent&#45;&gt;AppModule -->
<g id="edge9" class="edge">
<title>HeaderComponent&#45;&gt;AppModule</title>
<path fill="none" stroke="black" d="M1381.02,-84.91C1381.02,-84.91 1381.02,-103.79 1381.02,-103.79"/>
<polygon fill="black" stroke="black" points="1377.52,-103.79 1381.02,-113.79 1384.52,-103.79 1377.52,-103.79"/>
</g>
<!-- PasswordComponent -->
<g id="node10" class="node">
<title>PasswordComponent</title>
<polygon fill="#ffffb3" stroke="black" points="1250.5,-84.8 1115.5,-84.8 1115.5,-48.8 1250.5,-48.8 1250.5,-84.8"/>
<text text-anchor="middle" x="1183" y="-62.6" font-family="Times,serif" font-size="14.00">PasswordComponent</text>
</g>
<!-- PasswordComponent&#45;&gt;AppModule -->
<g id="edge10" class="edge">
<title>PasswordComponent&#45;&gt;AppModule</title>
<path fill="none" stroke="black" d="M1183,-84.99C1183,-99.98 1183,-118.8 1183,-118.8 1183,-118.8 1362.17,-118.8 1362.17,-118.8"/>
<polygon fill="black" stroke="black" points="1362.17,-122.3 1372.17,-118.8 1362.17,-115.3 1362.17,-122.3"/>
</g>
<!-- ProfileComponent -->
<g id="node11" class="node">
<title>ProfileComponent</title>
<polygon fill="#ffffb3" stroke="black" points="1097.94,-84.8 978.06,-84.8 978.06,-48.8 1097.94,-48.8 1097.94,-84.8"/>
<text text-anchor="middle" x="1038" y="-62.6" font-family="Times,serif" font-size="14.00">ProfileComponent</text>
</g>
<!-- ProfileComponent&#45;&gt;AppModule -->
<g id="edge11" class="edge">
<title>ProfileComponent&#45;&gt;AppModule</title>
<path fill="none" stroke="black" d="M1038,-84.83C1038,-101.2 1038,-122.8 1038,-122.8 1038,-122.8 1362.32,-122.8 1362.32,-122.8"/>
<polygon fill="black" stroke="black" points="1362.32,-126.3 1372.32,-122.8 1362.32,-119.3 1362.32,-126.3"/>
</g>
<!-- ShopComponent -->
<g id="node12" class="node">
<title>ShopComponent</title>
<polygon fill="#ffffb3" stroke="black" points="960.12,-84.8 849.88,-84.8 849.88,-48.8 960.12,-48.8 960.12,-84.8"/>
<text text-anchor="middle" x="905" y="-62.6" font-family="Times,serif" font-size="14.00">ShopComponent</text>
</g>
<!-- ShopComponent&#45;&gt;AppModule -->
<g id="edge12" class="edge">
<title>ShopComponent&#45;&gt;AppModule</title>
<path fill="none" stroke="black" d="M905,-85.1C905,-103.07 905,-127.8 905,-127.8 905,-127.8 1361.91,-127.8 1361.91,-127.8"/>
<polygon fill="black" stroke="black" points="1361.91,-131.3 1371.91,-127.8 1361.91,-124.3 1361.91,-131.3"/>
</g>
<!-- ShopManageAppointmentsComponent -->
<g id="node13" class="node">
<title>ShopManageAppointmentsComponent</title>
<polygon fill="#ffffb3" stroke="black" points="832.04,-84.8 597.96,-84.8 597.96,-48.8 832.04,-48.8 832.04,-84.8"/>
<text text-anchor="middle" x="715" y="-62.6" font-family="Times,serif" font-size="14.00">ShopManageAppointmentsComponent</text>
</g>
<!-- ShopManageAppointmentsComponent&#45;&gt;AppModule -->
<g id="edge13" class="edge">
<title>ShopManageAppointmentsComponent&#45;&gt;AppModule</title>
<path fill="none" stroke="black" d="M715,-84.91C715,-104.14 715,-131.8 715,-131.8 715,-131.8 1362.11,-131.8 1362.11,-131.8"/>
<polygon fill="black" stroke="black" points="1362.11,-135.3 1372.11,-131.8 1362.11,-128.3 1362.11,-135.3"/>
</g>
<!-- ShopManagePartsComponent -->
<g id="node14" class="node">
<title>ShopManagePartsComponent</title>
<polygon fill="#ffffb3" stroke="black" points="579.71,-84.8 396.29,-84.8 396.29,-48.8 579.71,-48.8 579.71,-84.8"/>
<text text-anchor="middle" x="488" y="-62.6" font-family="Times,serif" font-size="14.00">ShopManagePartsComponent</text>
</g>
<!-- ShopManagePartsComponent&#45;&gt;AppModule -->
<g id="edge14" class="edge">
<title>ShopManagePartsComponent&#45;&gt;AppModule</title>
<path fill="none" stroke="black" d="M488,-84.83C488,-105.57 488,-136.8 488,-136.8 488,-136.8 1362.11,-136.8 1362.11,-136.8"/>
<polygon fill="black" stroke="black" points="1362.11,-140.3 1372.11,-136.8 1362.11,-133.3 1362.11,-140.3"/>
</g>
<!-- ShopManageServicesComponent -->
<g id="node15" class="node">
<title>ShopManageServicesComponent</title>
<polygon fill="#ffffb3" stroke="black" points="378.14,-84.8 175.86,-84.8 175.86,-48.8 378.14,-48.8 378.14,-84.8"/>
<text text-anchor="middle" x="277" y="-62.6" font-family="Times,serif" font-size="14.00">ShopManageServicesComponent</text>
</g>
<!-- ShopManageServicesComponent&#45;&gt;AppModule -->
<g id="edge15" class="edge">
<title>ShopManageServicesComponent&#45;&gt;AppModule</title>
<path fill="none" stroke="black" d="M277,-85.09C277,-107.01 277,-140.8 277,-140.8 277,-140.8 1362.19,-140.8 1362.19,-140.8"/>
<polygon fill="black" stroke="black" points="1362.19,-144.3 1372.19,-140.8 1362.19,-137.3 1362.19,-144.3"/>
</g>
<!-- AppComponent  -->
<g id="node18" class="node">
<title>AppComponent </title>
<polygon fill="#80b1d3" stroke="black" points="1468.44,-214.8 1359.56,-214.8 1359.56,-178.8 1468.44,-178.8 1468.44,-214.8"/>
<text text-anchor="middle" x="1414" y="-192.6" font-family="Times,serif" font-size="14.00">AppComponent </text>
</g>
<!-- AppModule&#45;&gt;AppComponent  -->
<g id="edge17" class="edge">
<title>AppModule&#45;&gt;AppComponent </title>
<path fill="none" stroke="black" stroke-dasharray="1,5" d="M1414,-149.91C1414,-149.91 1414,-168.79 1414,-168.79"/>
<polygon fill="black" stroke="black" points="1410.5,-168.79 1414,-178.79 1417.5,-168.79 1410.5,-168.79"/>
</g>
<!-- AppRoutingModule -->
<g id="node17" class="node">
<title>AppRoutingModule</title>
<polygon fill="#8dd3c7" stroke="black" points="152.28,-84.8 149.28,-88.8 128.28,-88.8 125.28,-84.8 23.72,-84.8 23.72,-48.8 152.28,-48.8 152.28,-84.8"/>
<text text-anchor="middle" x="88" y="-62.6" font-family="Times,serif" font-size="14.00">AppRoutingModule</text>
</g>
<!-- AppRoutingModule&#45;&gt;AppModule -->
<g id="edge16" class="edge">
<title>AppRoutingModule&#45;&gt;AppModule</title>
<path fill="none" stroke="black" d="M88,-85.12C88,-108.46 88,-145.8 88,-145.8 88,-145.8 1362.13,-145.8 1362.13,-145.8"/>
<polygon fill="black" stroke="black" points="1362.13,-149.3 1372.13,-145.8 1362.13,-142.3 1362.13,-149.3"/>
</g>
</g>
</svg>
